HIERARCHY
ROOT Hips
{
	OFFSET 15.979597 102.806511 3.163187
	CHANNELS 6 Xposition Yposition Zposition Xrotation Yrotation Zrotation
	JOINT Chest
	{
		OFFSET 1.125391 13.391228 2.358565
		CHANNELS 3 Xrotation Yrotation Zrotation
		JOINT Chest2
		{
			OFFSET 1.863634 20.899231 4.337699
			CHANNELS 3 Xrotation Yrotation Zrotation
			JOINT Chest3
			{
				OFFSET 0.690657 14.904800 -0.435779
				CHANNELS 3 Xrotation Yrotation Zrotation
				JOINT Neck
				{
					OFFSET 2.398256 16.979858 2.132829
					CHANNELS 3 Xrotation Yrotation Zrotation
					JOINT Head
					{
						OFFSET 2.522085 9.836609 2.589969
						CHANNELS 3 Xrotation Yrotation Zrotation
						End Site
						{
							OFFSET 2.526173 9.853958 2.519076
						}
					}
				}
				JOINT LeftCollar
				{
					OFFSET 6.036100 12.089935 4.382170
					CHANNELS 3 Xrotation Yrotation Zrotation
					JOINT LeftUpArm
					{
						OFFSET 15.128096 6.392136 -6.227408
						CHANNELS 3 Xrotation Yrotation Zrotation
						JOINT LeftLowArm
						{
							OFFSET 10.979580 30.205154 10.335621
							CHANNELS 3 Xrotation Yrotation Zrotation
							JOINT LeftHand
							{
								OFFSET -16.079880 24.856155 4.955393
								CHANNELS 3 Xrotation Yrotation Zrotation
								End Site
								{
									OFFSET -3.514328 5.432480 1.083021
								}
							}
						}
					}
				}
				JOINT RightCollar
				{
					OFFSET -2.298603 13.238449 4.611792
					CHANNELS 3 Xrotation Yrotation Zrotation
					JOINT RightUpArm
					{
						OFFSET -12.611071 10.289459 -6.601834
						CHANNELS 3 Xrotation Yrotation Zrotation
						JOINT RightLowArm
						{
							OFFSET -4.021942 31.765564 10.700779
							CHANNELS 3 Xrotation Yrotation Zrotation
							JOINT RightHand
							{
								OFFSET 21.221302 20.769730 4.385202
								CHANNELS 3 Xrotation Yrotation Zrotation
								End Site
								{
									OFFSET 4.638136 4.539429 0.958426
								}
							}
						}
					}
				}
			}
		}
	}
	JOINT LeftUpLeg
	{
		OFFSET 9.974649 -0.727631 -0.629337
		CHANNELS 3 Xrotation Yrotation Zrotation
		JOINT LeftLowLeg
		{
			OFFSET 11.648624 -45.728954 4.142756
			CHANNELS 3 Xrotation Yrotation Zrotation
			JOINT LeftFoot
			{
				OFFSET -19.052900 -24.153240 -32.468086
				CHANNELS 3 Xrotation Yrotation Zrotation
				JOINT LeftToe
				{
					OFFSET -5.518954 -22.992491 -0.668121
					CHANNELS 3 Xrotation Yrotation Zrotation
					End Site
					{
						OFFSET 2.286663 -19.729868 12.847659
					}
				}
			}
		}
	}
	JOINT RightUpLeg
	{
		OFFSET -9.974670 0.727440 0.629303
		CHANNELS 3 Xrotation Yrotation Zrotation
		JOINT RightLowLeg
		{
			OFFSET 5.580577 -44.963734 13.825089
			CHANNELS 3 Xrotation Yrotation Zrotation
			JOINT RightFoot
			{
				OFFSET 9.692417 -40.419228 -16.520401
				CHANNELS 3 Xrotation Yrotation Zrotation
				JOINT RightToe
				{
					OFFSET 5.037971 -18.925495 13.266557
					CHANNELS 3 Xrotation Yrotation Zrotation
					End Site
					{
						OFFSET -0.941933 -7.353498 22.463192
					}
				}
			}
		}
	}
}
MOTION
Frames: 16
Frame Time: 0.033333
48.709618 94.715500 23.344688 7.349536 -11.942234 -2.519843 10.857602 -0.969675 -5.713779 1.034807 1.083689 -0.892641 -5.577701 -6.524066 -0.362975 -5.444236 -2.822970 5.124944 0.000001 -0.000001 0.000001 7.342577 -0.241572 -35.642297 10.575218 13.796089 -57.499326 95.621084 -17.272145 -56.705726 0.000003 -0.000000 0.000004 -0.976186 -10.573427 15.766947 1.097727 -13.042807 21.593868 3.681553 -8.852109 12.024987 -0.000006 -0.000002 -0.000000 -13.506665 -4.023895 17.027407 4.356744 6.101797 -21.646292 0.152573 3.196260 9.591303 0.000000 0.000001 -0.000000 -22.736800 0.886131 -0.507320 8.226397 3.873127 16.476274 1.102405 -16.676921 -4.264606 0.000000 0.000003 0.000001 
49.107872 93.992165 23.898632 7.955074 -11.816747 -3.017104 10.927399 -0.913514 -5.851868 0.402465 0.857108 -0.450719 -5.181415 -6.456558 -0.302948 -5.677298 -3.243966 5.243463 -0.000001 0.000000 0.000000 7.046026 -0.058826 -34.984430 9.978955 14.086679 -56.749105 97.910222 -17.363915 -55.075145 0.000005 0.000001 0.000003 -0.977318 -10.248286 15.728903 1.182062 -12.003588 20.715358 3.186318 -8.878853 12.676080 -0.000004 -0.000002 -0.000000 -13.477602 -4.054134 17.930660 3.850951 6.999003 -22.349658 0.762744 3.226230 9.797141 -0.000001 0.000002 -0.000002 -22.587430 0.683346 -0.024702 8.412799 3.659329 16.130813 0.969943 -16.177795 -4.212547 -0.000002 -0.000003 0.000001 
49.477875 93.341248 24.444620 8.211678 -11.976678 -3.390988 10.919798 -0.880569 -6.011949 0.564692 0.815100 -0.454137 -5.378519 -6.245945 0.041229 -5.713413 -3.726839 5.464909 0.000001 0.000000 0.000000 6.940851 0.070827 -34.415616 9.897140 13.606640 -56.151665 99.117472 -16.728802 -53.477099 0.000001 -0.000002 0.000006 -0.930352 -10.021098 15.661760 1.199428 -11.631246 20.402497 3.038875 -8.918118 12.839336 -0.000001 -0.000005 -0.000002 -13.799946 -4.165114 18.555715 4.040273 7.097259 -22.822549 0.515151 3.198220 9.767994 0.000003 -0.000004 -0.000000 -23.170785 0.582763 0.331152 8.723092 3.758364 16.113540 0.292510 -16.603932 -4.216605 -0.000001 0.000002 0.000001 
49.832901 92.771637 24.978884 8.425283 -12.015665 -3.827547 10.748371 -0.853127 -6.187928 0.813104 0.732480 -0.429337 -5.741429 -5.998876 0.360744 -5.420229 -4.207313 5.700786 0.000000 0.000001 0.000000 6.848365 0.109027 -34.089812 9.446173 13.883856 -55.700766 100.288945 -17.577582 -53.491835 0.000002 -0.000000 0.000004 -1.061681 -10.022962 15.967078 0.761943 -11.597899 20.496672 3.389684 -8.693758 12.799123 -0.000001 0.000001 0.000003 -13.964750 -4.290141 19.071966 4.395006 6.862601 -22.697262 -0.056397 2.995965 9.348611 0.000001 -0.000001 -0.000000 -22.069941 0.501606 0.632143 7.973743 3.318849 15.969197 -0.091653 -16.594976 -4.140793 -0.000000 -0.000003 0.000003 
50.168877 92.255432 25.505468 8.477306 -11.859128 -4.240808 10.829775 -0.884173 -6.228222 0.857037 0.673215 -0.300599 -5.840545 -5.823954 0.460331 -5.253348 -4.522199 6.067203 0.000000 -0.000000 0.000001 7.034130 0.034076 -33.587267 9.558582 14.182971 -55.760657 101.249283 -17.721471 -52.999594 0.000004 0.000001 0.000003 -0.811440 -9.912245 15.987029 1.094181 -11.644873 20.481150 2.730494 -8.638857 13.162983 -0.000000 0.000002 -0.000002 -14.105081 -4.406608 19.451627 4.265054 6.911891 -22.726121 -0.418365 2.983388 9.444493 -0.000003 -0.000001 0.000001 -22.547257 0.477407 0.758309 8.344619 3.485510 16.052362 -0.252262 -16.742696 -4.151480 -0.000000 -0.000001 0.000004 
50.478615 91.793869 26.026667 8.816624 -12.052427 -4.444569 10.455050 -0.817573 -6.228533 1.032207 0.638515 -0.254685 -6.026137 -5.571516 0.535576 -5.043280 -4.656675 6.259126 0.000000 -0.000000 0.000002 7.021857 0.301006 -33.407596 9.692490 13.692887 -55.405917 101.571661 -17.429495 -52.435912 -0.000000 -0.000002 0.000004 -0.816830 -10.008420 16.135861 1.480298 -11.411755 20.282703 1.697084 -8.519854 13.781274 0.000002 -0.000007 0.000003 -13.902211 -4.423033 19.751766 3.555899 7.289710 -22.979635 0.019439 3.038458 9.600482 0.000002 0.000001 0.000001 -22.691517 0.506238 0.911404 7.624029 3.253004 16.162422 0.340427 -16.369691 -4.189070 0.000000 0.000000 0.000000 
50.772644 91.387947 26.538879 8.992946 -12.293098 -4.683136 10.484953 -0.820408 -6.346194 0.766867 0.570102 -0.209644 -5.987644 -5.337450 0.732516 -4.723224 -4.768111 6.226461 0.000001 0.000003 -0.000002 7.037389 0.289305 -33.066155 9.557047 13.301212 -55.435820 101.918915 -17.246311 -51.703910 -0.000001 0.000000 0.000004 -0.628888 -9.570803 16.129189 1.492729 -11.034126 20.098747 1.982123 -8.462493 14.343659 -0.000003 0.000001 0.000001 -14.124942 -4.438481 19.957936 4.005952 6.844580 -22.803198 0.050522 3.022061 9.225461 0.000006 -0.000002 -0.000003 -21.870857 0.362218 1.423785 7.184314 3.038001 15.639632 -0.149863 -15.973222 -4.027635 -0.000002 -0.000003 -0.000003 
51.055832 91.016167 27.033546 8.601844 -12.443998 -4.908261 10.553388 -0.807008 -6.511347 0.935764 0.541686 -0.242190 -5.949330 -4.855419 0.930201 -4.752015 -5.246092 6.493086 0.000001 0.000002 0.000001 6.983526 -0.155206 -32.725052 9.440308 12.636340 -55.139048 101.783650 -17.038170 -51.182941 -0.000000 0.000002 0.000003 -0.687631 -9.454942 16.110912 1.152930 -11.110740 20.439708 2.905771 -8.324127 14.188700 -0.000001 0.000001 0.000003 -13.776779 -4.319289 19.933683 4.330562 6.439670 -22.471109 -0.449703 3.112205 9.467178 0.000002 0.000001 -0.000004 -21.371225 0.335181 1.505380 7.068702 3.100270 15.762680 -0.567405 -16.510808 -3.986226 0.000000 -0.000001 -0.000002 
51.333992 90.673187 27.495621 9.102733 -12.546402 -4.987828 9.371296 -0.520344 -6.602834 1.036851 0.471366 -0.065520 -5.615284 -4.930644 0.954131 -4.241089 -5.327861 6.483568 0.000001 0.000001 -0.000001 6.654113 0.157855 -32.679870 9.524755 12.708015 -55.342489 102.027549 -17.148547 -51.745861 0.000002 -0.000005 0.000005 -1.070918 -9.932301 16.193839 1.707781 -10.355210 20.272241 3.645365 -8.842556 13.902116 0.000000 -0.000000 0.000001 -13.460788 -4.278054 20.012422 6.553058 4.340961 -19.691217 -1.745649 3.168483 10.094319 0.000005 -0.000003 0.000000 -19.117203 0.337183 1.976589 7.904058 3.499884 14.395448 -2.452297 -14.642829 -2.811978 -0.000001 -0.000002 0.000001 
51.581436 90.369484 27.975761 8.472687 -12.349960 -5.162315 10.567224 -0.817134 -6.362284 0.836935 0.720988 -0.354703 -5.662848 -5.067941 1.130522 -4.395572 -5.226526 6.568350 0.000000 0.000002 0.000001 6.955592 0.184915 -32.625167 10.096904 12.815485 -55.567793 102.817563 -15.196573 -49.421746 0.000004 -0.000000 0.000006 -0.743921 -9.829141 15.982656 1.651139 -11.174297 20.129394 3.128740 -9.234272 13.499106 -0.000001 -0.000003 -0.000002 -13.916387 -4.315044 19.672688 6.560176 4.823185 -20.824412 -1.628219 2.660525 8.602850 0.000001 0.000004 -0.000003 -20.809630 0.319100 1.569145 8.369608 3.568717 15.541095 -1.869849 -16.545363 -3.643650 -0.000002 0.000001 -0.000002 
51.804527 90.093628 28.442112 7.818348 -12.270093 -5.252529 11.200056 -0.946298 -6.430825 0.867368 0.696535 -0.335152 -5.683191 -4.961303 1.163526 -4.453425 -5.271946 6.488440 -0.000001 -0.000004 -0.000002 7.150914 -0.159919 -32.457237 10.333146 12.721718 -55.434662 102.733968 -14.023008 -48.366414 0.000003 -0.000003 0.000003 -0.660599 -9.906814 16.094139 1.202287 -11.888089 20.019974 3.564190 -9.499449 12.838246 -0.000002 -0.000003 0.000002 -13.891222 -4.240963 19.426581 6.842565 4.746359 -20.943612 -2.299793 2.226434 7.383971 0.000004 -0.000001 -0.000000 -21.058568 0.358699 1.340588 8.663117 3.683980 16.032185 -1.928924 -17.262308 -3.944976 -0.000000 -0.000001 -0.000000 
52.006905 89.849350 28.898378 7.877183 -12.025054 -5.259625 10.973203 -0.920313 -6.350067 0.935131 0.623301 -0.281343 -5.687759 -5.055015 1.068195 -4.526302 -5.486643 6.531565 0.000000 0.000002 0.000000 7.203326 -0.287863 -32.530559 10.333942 12.642328 -55.230928 102.510512 -14.142276 -48.701066 0.000002 0.000001 0.000005 -0.562852 -9.737575 16.027438 1.273398 -11.791682 19.920361 3.380841 -9.495004 13.015276 0.000000 0.000001 0.000001 -13.984117 -4.232295 19.298163 6.830124 4.705203 -20.765437 -2.270997 2.044175 6.778186 0.000003 -0.000003 0.000001 -20.624917 0.360270 1.206147 8.522707 3.568526 16.181487 -2.236515 -17.763521 -4.101687 0.000001 0.000001 -0.000001 
52.192841 89.626465 29.339598 7.745499 -12.031882 -5.253647 10.998945 -0.927193 -6.377492 0.963885 0.662965 -0.358834 -5.836885 -5.118705 1.136418 -4.435577 -5.486473 6.483155 0.000002 -0.000002 -0.000002 7.267373 -0.284469 -32.502422 10.396780 12.476772 -55.140442 102.249052 -14.266742 -49.022286 0.000003 0.000002 0.000003 -0.499187 -9.755959 15.901471 0.897816 -12.325647 20.154729 3.041895 -9.424032 12.913682 -0.000004 -0.000007 0.000003 -13.922211 -4.183782 19.193696 6.649210 4.784873 -20.754686 -2.183922 2.048431 6.734107 0.000006 -0.000002 -0.000001 -21.012286 0.352146 1.231976 8.459380 3.582985 16.049179 -1.909287 -17.995166 -4.230058 -0.000002 0.000001 0.000001 
52.383995 89.430077 29.738091 8.305841 -12.417542 -5.277895 9.669831 -0.606105 -6.457574 1.001983 0.515597 -0.098764 -5.628396 -4.904217 0.932403 -3.799011 -5.654976 6.643850 -0.000001 0.000003 -0.000000 6.837032 0.537822 -32.867034 10.106979 12.892779 -55.001580 102.454969 -15.974166 -51.089166 0.000001 -0.000004 0.000005 -0.944787 -10.204641 16.313430 1.162183 -11.702856 19.964969 3.871204 -9.496815 12.349809 -0.000003 -0.000001 0.000003 -13.672749 -4.197863 19.438445 8.359206 3.051545 -18.357793 -3.018125 2.586187 8.539839 0.000008 -0.000001 -0.000000 -19.365325 0.380605 1.767599 9.360617 4.158216 14.922420 -3.487311 -16.472261 -3.140933 -0.000000 0.000000 0.000000 
52.511002 89.256340 30.167566 7.113531 -11.999461 -5.476808 10.867809 -0.892544 -6.335401 0.686256 0.588604 -0.190121 -5.596763 -5.049740 1.008606 -3.468469 -5.627496 6.525874 0.000000 0.000002 0.000000 6.984784 0.349520 -32.951575 10.075450 12.787140 -54.916428 102.227960 -15.605445 -50.502371 0.000003 -0.000002 0.000004 -0.608085 -9.721969 16.180114 1.008570 -11.841686 19.982770 4.251278 -9.409065 12.194411 -0.000002 0.000002 -0.000002 -13.469863 -4.107159 19.367244 7.614700 3.856643 -19.769907 -2.523370 2.267807 7.563418 0.000003 -0.000005 0.000000 -20.167674 0.324499 1.449158 9.227510 4.023184 15.755008 -2.120010 -16.806345 -3.740557 -0.000001 -0.000001 -0.000000 
52.613197 89.111740 30.591902 6.810602 -11.891683 -5.529780 10.913355 -0.928538 -6.234186 0.730807 0.616312 -0.270448 -5.690358 -5.293399 1.039007 -3.457298 -5.443874 6.369506 0.000000 0.000002 0.000000 7.040174 0.011658 -32.917038 9.846349 13.349296 -55.053278 102.521788 -15.758611 -50.382088 -0.000001 -0.000003 0.000005 -0.459730 -9.466377 16.373780 0.763374 -11.905056 19.917540 4.215931 -9.357678 12.028240 0.000003 0.000001 0.000001 -13.381608 -4.082604 19.451190 7.332710 4.192477 -20.337305 -2.032405 2.132607 6.967102 0.000005 -0.000001 -0.000003 -20.028833 0.234933 1.624572 8.889004 3.793598 15.628306 -1.483406 -16.803379 -3.882608 -0.000001 -0.000003 -0.000001 
